<?xml version="1.0" standalone="no"?>
<!DOCTYPE svg PUBLIC "-//W3C//DTD SVG 20010904//EN"
 "http://www.w3.org/TR/2001/REC-SVG-20010904/DTD/svg10.dtd">
<svg version="1.0" xmlns="http://www.w3.org/2000/svg"
 width="500.000000pt" height="500.000000pt" viewBox="0 0 500.000000 500.000000"
 preserveAspectRatio="xMidYMid meet">
<metadata>
Created by potrace 1.14, written by Peter Selinger 2001-2017
</metadata>
<g transform="translate(0.000000,500.000000) scale(0.100000,-0.100000)"
fill="#000000" stroke="none">
<path d="M1107 4892 l-27 -28 0 -364 0 -364 27 -28 27 -28 366 0 366 0 27 28
27 28 0 365 0 365 -28 27 -28 27 -365 0 -365 0 -27 -28z"/>
<path d="M2107 4892 l-27 -28 0 -364 0 -364 27 -28 27 -28 366 0 366 0 27 28
27 28 0 365 0 365 -28 27 -28 27 -365 0 -365 0 -27 -28z"/>
<path d="M3107 4892 l-27 -28 0 -364 0 -364 27 -28 27 -28 366 0 366 0 27 28
27 28 0 365 0 365 -28 27 -28 27 -365 0 -365 0 -27 -28z"/>
<path d="M1107 3892 l-27 -28 0 -364 0 -364 27 -28 27 -28 366 0 366 0 27 28
27 28 0 365 0 365 -28 27 -28 27 -365 0 -365 0 -27 -28z"/>
<path d="M1107 2892 l-27 -28 0 -364 0 -364 27 -28 27 -28 366 0 366 0 27 28
27 28 0 365 0 365 -28 27 -28 27 -365 0 -365 0 -27 -28z"/>
<path d="M2107 2892 l-27 -28 0 -364 0 -364 27 -28 27 -28 366 0 366 0 27 28
27 28 0 365 0 365 -28 27 -28 27 -365 0 -365 0 -27 -28z"/>
<path d="M1107 1892 l-27 -28 0 -364 0 -364 27 -28 27 -28 366 0 366 0 27 28
27 28 0 365 0 365 -28 27 -28 27 -365 0 -365 0 -27 -28z"/>
<path d="M1107 892 l-27 -28 0 -364 0 -364 27 -28 27 -28 366 0 366 0 27 28
27 28 0 365 0 365 -28 27 -28 27 -365 0 -365 0 -27 -28z"/>
</g>
</svg>
